<?xml version="1.0"?>
<!DOCTYPE svg PUBLIC "-//W3C//DTD SVG 1.1//EN" "http://www.w3.org/Graphics/SVG/1.1/DTD/svg11.dtd">
<!--Phoronix Test Suite v6.8.0 [ http://www.phoronix-test-suite.com/ ]-->
<svg xmlns="http://www.w3.org/2000/svg" xmlns:xlink="http://www.w3.org/1999/xlink" version="1.1" font-family="sans-serif, droid-sans, helvetica, verdana, tahoma" viewbox="0 0 277 152" width="277" height="152" preserveAspectRatio="xMinYMin meet"><rect x="0" y="0" width="277" height="152" fill="#FEFEFE" stroke="#757575" stroke-width="2"/><rect x="1" y="1" width="276" height="151" fill="#FEFEFE" stroke="#757575" stroke-width="1"/><path d="m74 22v9m-5-16v16m-5-28v28m-23-2h12.5c2.485281 0 4.5-2.014719 4.5-4.5s-2.014719-4.5-4.5-4.5h-8c-2.485281 0-4.5-2.014719-4.5-4.5s2.014719-4.5 4.5-4.5h12.5m-21 5h-11m11 13h-2c-4.970563 0-9-4.029437-9-9v-20m-24 40v-20c0-4.970563 4.0294373-9 9-9 4.970563 0 9 4.029437 9 9s-4.029437 9-9 9h-9" stroke="#000000" stroke-width="4" fill="none" transform="translate(31,43)"/><line x1="142" y1="88" x2="232" y2="88" stroke="#BABABA" stroke-width="96" stroke-dasharray="45,45"/><rect x="232" y="40" width="45" height="96" fill="#949494"/><line x1="116" y1="88" x2="116" y2="136" stroke="#949494" stroke-width="232" stroke-dasharray="16,16"/><line x1="142" y1="88" x2="277" y2="88" stroke="#757575" stroke-width="96" stroke-dasharray="1,44"/><rect x="1" y="1" width="275" height="40" fill="#231f20"/><text x="5" y="19" font-size="17" fill="#FEFEFE" text-anchor="start">Flexible IO Tester</text><text x="5" y="33" font-size="11" fill="#FEFEFE" text-anchor="start">Type: Random Read - IO Engine: Libaio - Buffered: Yes - Direct: No - Block Size: 8KB - Disk Target: /home/test/x - Result: MB/s</text><line x1="1" y1="40" x2="276" y2="40" stroke="#757575" stroke-width="1"/><g font-size="10" font-weight="bold" text-anchor="end" fill="#065695"><text x="140" y="100" fill="#065695">Results</text><text x="140" y="116" fill="#065695">Standard Error</text><text x="140" y="132" fill="#065695">Standard Deviation</text></g><g font-size="10" fill="#065695" font-weight="bold" text-anchor="middle" dominant-baseline="text-before-edge"><text x="164.5" y="64">nilfs</text><text x="209.5" y="64">ext4</text></g><g/><g text-anchor="middle" font-size="10"><text x="164.5" y="101" fill="#005a00" xlink:title="STD Dev: 0.85%;  STD Error: 0.01">1.37</text><text x="164.5" y="117" fill="#065695">0.01</text><text x="164.5" y="133" fill="#065695">0.85%</text><text x="209.5" y="101" fill="#005a00" xlink:title="STD Dev: 0.27%">1.37</text><text x="209.5" y="117" fill="#065695">0.27%</text></g><line x1="116" y1="88" x2="116" y2="136" stroke="#949494" stroke-width="232" stroke-dasharray="1,15"/><rect x="0" y="136" width="277" height="16" fill="#231f20"/><a xlink:href="http://www.phoronix-test-suite.com/" xlink:show="new"><text x="275" y="149" font-size="10" fill="#FFFFFF" text-anchor="end" xlink:show="new">PHORONIX-TEST-SUITE.COM</text></a></svg>
