<?xml version="1.0"?>
<!DOCTYPE svg PUBLIC "-//W3C//DTD SVG 1.1//EN" "http://www.w3.org/Graphics/SVG/1.1/DTD/svg11.dtd">
<!--Phoronix Test Suite v6.8.0 [ http://www.phoronix-test-suite.com/ ]-->
<svg xmlns="http://www.w3.org/2000/svg" xmlns:xlink="http://www.w3.org/1999/xlink" version="1.1" font-family="sans-serif, droid-sans, helvetica, verdana, tahoma" viewbox="0 0 1000 762" width="1000" height="762" preserveAspectRatio="xMinYMin meet"><rect x="0" y="0" width="1000" height="761.33333333333" fill="#FEFEFE" stroke="#757575" stroke-width="2"/><g stroke="#757575" stroke-width="1"/><g font-size="9" text-anchor="start"/><rect x="30" y="86.333333333333" width="960" height="120" fill="#BABABA" stroke="#757575" stroke-width="1"/><a xlink:href="http://www.phoronix-test-suite.com/" xlink:show="new"><text x="988" y="98.333333333333" font-size="10" fill="#065695" text-anchor="end" xlink:show="new">PHORONIX-TEST-SUITE.COM</text></a><g stroke="#757575" stroke-width="1" stroke-dasharray="5,5"><line x1="30" y1="187.5" x2="990" y2="187.5"/><line x1="30" y1="167.5" x2="990" y2="167.5"/><line x1="30" y1="147.5" x2="990" y2="147.5"/><line x1="30" y1="127.5" x2="990" y2="127.5"/><line x1="30" y1="107.5" x2="990" y2="107.5"/></g><g stroke="#757575" stroke-width="1"><line x1="26" y1="187.5" x2="34" y2="187.5"/><line x1="26" y1="167.5" x2="34" y2="167.5"/><line x1="26" y1="147.5" x2="34" y2="147.5"/><line x1="26" y1="127.5" x2="34" y2="127.5"/><line x1="26" y1="107.5" x2="34" y2="107.5"/></g><g stroke="#949494" stroke-width="1" stroke-dasharray="5,5"><line x1="41" y1="187.5" x2="990" y2="187.5"/><line x1="41" y1="167.5" x2="990" y2="167.5"/><line x1="41" y1="147.5" x2="990" y2="147.5"/><line x1="41" y1="127.5" x2="990" y2="127.5"/><line x1="41" y1="107.5" x2="990" y2="107.5"/></g><g font-size="10" fill="#065695" text-anchor="end"/><rect x="30" y="221.33333333333" width="960" height="120" fill="#BABABA" stroke="#757575" stroke-width="1"/><a xlink:href="http://www.phoronix-test-suite.com/" xlink:show="new"><text x="988" y="233.33333333333" font-size="10" fill="#065695" text-anchor="end" xlink:show="new">PHORONIX-TEST-SUITE.COM</text></a><g stroke="#757575" stroke-width="1" stroke-dasharray="5,5"><line x1="30" y1="322.5" x2="990" y2="322.5"/><line x1="30" y1="302.5" x2="990" y2="302.5"/><line x1="30" y1="282.5" x2="990" y2="282.5"/><line x1="30" y1="262.5" x2="990" y2="262.5"/><line x1="30" y1="242.5" x2="990" y2="242.5"/></g><g stroke="#757575" stroke-width="1"><line x1="26" y1="322.5" x2="34" y2="322.5"/><line x1="26" y1="302.5" x2="34" y2="302.5"/><line x1="26" y1="282.5" x2="34" y2="282.5"/><line x1="26" y1="262.5" x2="34" y2="262.5"/><line x1="26" y1="242.5" x2="34" y2="242.5"/></g><g stroke="#949494" stroke-width="1" stroke-dasharray="5,5"><line x1="41" y1="322.5" x2="990" y2="322.5"/><line x1="41" y1="302.5" x2="990" y2="302.5"/><line x1="41" y1="282.5" x2="990" y2="282.5"/><line x1="41" y1="262.5" x2="990" y2="262.5"/><line x1="41" y1="242.5" x2="990" y2="242.5"/></g><g font-size="10" fill="#065695" text-anchor="end"/><rect x="30" y="356.33333333333" width="960" height="120" fill="#BABABA" stroke="#757575" stroke-width="1"/><a xlink:href="http://www.phoronix-test-suite.com/" xlink:show="new"><text x="988" y="368.33333333333" font-size="10" fill="#065695" text-anchor="end" xlink:show="new">PHORONIX-TEST-SUITE.COM</text></a><g stroke="#757575" stroke-width="1" stroke-dasharray="5,5"><line x1="30" y1="457.5" x2="990" y2="457.5"/><line x1="30" y1="437.5" x2="990" y2="437.5"/><line x1="30" y1="417.5" x2="990" y2="417.5"/><line x1="30" y1="397.5" x2="990" y2="397.5"/><line x1="30" y1="377.5" x2="990" y2="377.5"/></g><g stroke="#757575" stroke-width="1"><line x1="26" y1="457.5" x2="34" y2="457.5"/><line x1="26" y1="437.5" x2="34" y2="437.5"/><line x1="26" y1="417.5" x2="34" y2="417.5"/><line x1="26" y1="397.5" x2="34" y2="397.5"/><line x1="26" y1="377.5" x2="34" y2="377.5"/></g><g stroke="#949494" stroke-width="1" stroke-dasharray="5,5"><line x1="41" y1="457.5" x2="990" y2="457.5"/><line x1="41" y1="437.5" x2="990" y2="437.5"/><line x1="41" y1="417.5" x2="990" y2="417.5"/><line x1="41" y1="397.5" x2="990" y2="397.5"/><line x1="41" y1="377.5" x2="990" y2="377.5"/></g><g font-size="10" fill="#065695" text-anchor="end"/><rect x="30" y="491.33333333333" width="960" height="120" fill="#BABABA" stroke="#757575" stroke-width="1"/><a xlink:href="http://www.phoronix-test-suite.com/" xlink:show="new"><text x="988" y="503.33333333333" font-size="10" fill="#065695" text-anchor="end" xlink:show="new">PHORONIX-TEST-SUITE.COM</text></a><g stroke="#757575" stroke-width="1" stroke-dasharray="5,5"><line x1="30" y1="592.5" x2="990" y2="592.5"/><line x1="30" y1="572.5" x2="990" y2="572.5"/><line x1="30" y1="552.5" x2="990" y2="552.5"/><line x1="30" y1="532.5" x2="990" y2="532.5"/><line x1="30" y1="512.5" x2="990" y2="512.5"/></g><g stroke="#757575" stroke-width="1"><line x1="26" y1="592.5" x2="34" y2="592.5"/><line x1="26" y1="572.5" x2="34" y2="572.5"/><line x1="26" y1="552.5" x2="34" y2="552.5"/><line x1="26" y1="532.5" x2="34" y2="532.5"/><line x1="26" y1="512.5" x2="34" y2="512.5"/></g><g stroke="#949494" stroke-width="1" stroke-dasharray="5,5"><line x1="41" y1="592.5" x2="990" y2="592.5"/><line x1="41" y1="572.5" x2="990" y2="572.5"/><line x1="41" y1="552.5" x2="990" y2="552.5"/><line x1="41" y1="532.5" x2="990" y2="532.5"/><line x1="41" y1="512.5" x2="990" y2="512.5"/></g><g font-size="10" fill="#065695" text-anchor="end"/><rect x="30" y="626.33333333333" width="960" height="120" fill="#BABABA" stroke="#757575" stroke-width="1"/><a xlink:href="http://www.phoronix-test-suite.com/" xlink:show="new"><text x="988" y="638.33333333333" font-size="10" fill="#065695" text-anchor="end" xlink:show="new">PHORONIX-TEST-SUITE.COM</text></a><g stroke="#757575" stroke-width="1" stroke-dasharray="5,5"><line x1="30" y1="727.5" x2="990" y2="727.5"/><line x1="30" y1="707.5" x2="990" y2="707.5"/><line x1="30" y1="687.5" x2="990" y2="687.5"/><line x1="30" y1="667.5" x2="990" y2="667.5"/><line x1="30" y1="647.5" x2="990" y2="647.5"/></g><g stroke="#757575" stroke-width="1"><line x1="26" y1="727.5" x2="34" y2="727.5"/><line x1="26" y1="707.5" x2="34" y2="707.5"/><line x1="26" y1="687.5" x2="34" y2="687.5"/><line x1="26" y1="667.5" x2="34" y2="667.5"/><line x1="26" y1="647.5" x2="34" y2="647.5"/></g><g stroke="#949494" stroke-width="1" stroke-dasharray="5,5"><line x1="41" y1="727.5" x2="990" y2="727.5"/><line x1="41" y1="707.5" x2="990" y2="707.5"/><line x1="41" y1="687.5" x2="990" y2="687.5"/><line x1="41" y1="667.5" x2="990" y2="667.5"/><line x1="41" y1="647.5" x2="990" y2="647.5"/></g><g font-size="10" fill="#065695" text-anchor="end"/><text x="78" y="209" font-size="6.5" fill="#231f20" text-anchor="middle" dominant-baseline="text-before-edge">Flexible IO Tester</text><rect x="39.6" y="89" width="38" height="117" fill="#f44336" stroke="#949494" stroke-width="1"/><rect x="77.6" y="87" width="38" height="119" fill="#673ab7" stroke="#949494" stroke-width="1"/><text x="174" y="209" font-size="6.5" fill="#231f20" text-anchor="middle" dominant-baseline="text-before-edge">Flexible IO Tester</text><rect x="135.6" y="89" width="38" height="117" fill="#f44336" stroke="#949494" stroke-width="1"/><rect x="173.6" y="87" width="38" height="119" fill="#673ab7" stroke="#949494" stroke-width="1"/><text x="270" y="209" font-size="6.5" fill="#231f20" text-anchor="middle" dominant-baseline="text-before-edge">Flexible IO Tester</text><rect x="231.6" y="87" width="38" height="119" fill="#f44336" stroke="#949494" stroke-width="1"/><rect x="269.6" y="87" width="38" height="119" fill="#673ab7" stroke="#949494" stroke-width="1"/><text x="366" y="209" font-size="6.5" fill="#231f20" text-anchor="middle" dominant-baseline="text-before-edge">Flexible IO Tester</text><rect x="327.6" y="88" width="38" height="118" fill="#f44336" stroke="#949494" stroke-width="1"/><rect x="365.6" y="87" width="38" height="119" fill="#673ab7" stroke="#949494" stroke-width="1"/><text x="462" y="209" font-size="6.5" fill="#231f20" text-anchor="middle" dominant-baseline="text-before-edge">Flexible IO Tester</text><rect x="423.6" y="87" width="38" height="119" fill="#f44336" stroke="#949494" stroke-width="1"/><rect x="461.6" y="87" width="38" height="119" fill="#673ab7" stroke="#949494" stroke-width="1"/><text x="558" y="209" font-size="6.5" fill="#231f20" text-anchor="middle" dominant-baseline="text-before-edge">Flexible IO Tester</text><rect x="519.6" y="89" width="38" height="117" fill="#f44336" stroke="#949494" stroke-width="1"/><rect x="557.6" y="87" width="38" height="119" fill="#673ab7" stroke="#949494" stroke-width="1"/><text x="654" y="209" font-size="6.5" fill="#231f20" text-anchor="middle" dominant-baseline="text-before-edge">Flexible IO Tester</text><rect x="615.6" y="89" width="38" height="117" fill="#f44336" stroke="#949494" stroke-width="1"/><rect x="653.6" y="87" width="38" height="119" fill="#673ab7" stroke="#949494" stroke-width="1"/><text x="750" y="209" font-size="6.5" fill="#231f20" text-anchor="middle" dominant-baseline="text-before-edge">Flexible IO Tester</text><rect x="711.6" y="87" width="38" height="119" fill="#f44336" stroke="#949494" stroke-width="1"/><rect x="749.6" y="89" width="38" height="117" fill="#673ab7" stroke="#949494" stroke-width="1"/><text x="846" y="209" font-size="6.5" fill="#231f20" text-anchor="middle" dominant-baseline="text-before-edge">Flexible IO Tester</text><rect x="807.6" y="87" width="38" height="119" fill="#f44336" stroke="#949494" stroke-width="1"/><rect x="845.6" y="88" width="38" height="118" fill="#673ab7" stroke="#949494" stroke-width="1"/><text x="942" y="209" font-size="6.5" fill="#231f20" text-anchor="middle" dominant-baseline="text-before-edge">Flexible IO Tester</text><rect x="903.6" y="87" width="38" height="119" fill="#f44336" stroke="#949494" stroke-width="1"/><rect x="941.6" y="87" width="38" height="119" fill="#673ab7" stroke="#949494" stroke-width="1"/><line x1="126" y1="206" x2="950" y2="206" stroke="#757575" stroke-width="10" stroke-dasharray="1,95"/><line x1="30" y1="206" x2="990" y2="206" stroke="#757575" stroke-width="1"/><text x="78" y="344" font-size="6.5" fill="#231f20" text-anchor="middle" dominant-baseline="text-before-edge">Flexible IO Tester</text><rect x="39.6" y="256" width="38" height="85" fill="#f44336" stroke="#949494" stroke-width="1"/><rect x="77.6" y="222" width="38" height="119" fill="#673ab7" stroke="#949494" stroke-width="1"/><text x="174" y="344" font-size="6.5" fill="#231f20" text-anchor="middle" dominant-baseline="text-before-edge">Flexible IO Tester</text><rect x="135.6" y="255" width="38" height="86" fill="#f44336" stroke="#949494" stroke-width="1"/><rect x="173.6" y="222" width="38" height="119" fill="#673ab7" stroke="#949494" stroke-width="1"/><text x="270" y="344" font-size="6.5" fill="#231f20" text-anchor="middle" dominant-baseline="text-before-edge">Flexible IO Tester</text><rect x="231.6" y="275" width="38" height="66" fill="#f44336" stroke="#949494" stroke-width="1"/><rect x="269.6" y="222" width="38" height="119" fill="#673ab7" stroke="#949494" stroke-width="1"/><text x="366" y="344" font-size="6.5" fill="#231f20" text-anchor="middle" dominant-baseline="text-before-edge">Flexible IO Tester</text><rect x="327.6" y="275" width="38" height="66" fill="#f44336" stroke="#949494" stroke-width="1"/><rect x="365.6" y="222" width="38" height="119" fill="#673ab7" stroke="#949494" stroke-width="1"/><text x="462" y="344" font-size="6.5" fill="#231f20" text-anchor="middle" dominant-baseline="text-before-edge">Flexible IO Tester</text><rect x="423.6" y="273" width="38" height="68" fill="#f44336" stroke="#949494" stroke-width="1"/><rect x="461.6" y="222" width="38" height="119" fill="#673ab7" stroke="#949494" stroke-width="1"/><text x="558" y="344" font-size="6.5" fill="#231f20" text-anchor="middle" dominant-baseline="text-before-edge">Flexible IO Tester</text><rect x="519.6" y="273" width="38" height="68" fill="#f44336" stroke="#949494" stroke-width="1"/><rect x="557.6" y="222" width="38" height="119" fill="#673ab7" stroke="#949494" stroke-width="1"/><text x="654" y="344" font-size="6.5" fill="#231f20" text-anchor="middle" dominant-baseline="text-before-edge">Flexible IO Tester</text><rect x="615.6" y="258" width="38" height="83" fill="#f44336" stroke="#949494" stroke-width="1"/><rect x="653.6" y="222" width="38" height="119" fill="#673ab7" stroke="#949494" stroke-width="1"/><text x="750" y="344" font-size="6.5" fill="#231f20" text-anchor="middle" dominant-baseline="text-before-edge">Flexible IO Tester</text><rect x="711.6" y="257" width="38" height="84" fill="#f44336" stroke="#949494" stroke-width="1"/><rect x="749.6" y="222" width="38" height="119" fill="#673ab7" stroke="#949494" stroke-width="1"/><text x="846" y="344" font-size="6.5" fill="#231f20" text-anchor="middle" dominant-baseline="text-before-edge">Flexible IO Tester</text><rect x="807.6" y="276" width="38" height="65" fill="#f44336" stroke="#949494" stroke-width="1"/><rect x="845.6" y="222" width="38" height="119" fill="#673ab7" stroke="#949494" stroke-width="1"/><text x="942" y="344" font-size="6.5" fill="#231f20" text-anchor="middle" dominant-baseline="text-before-edge">Flexible IO Tester</text><rect x="903.6" y="276" width="38" height="65" fill="#f44336" stroke="#949494" stroke-width="1"/><rect x="941.6" y="222" width="38" height="119" fill="#673ab7" stroke="#949494" stroke-width="1"/><line x1="126" y1="341" x2="950" y2="341" stroke="#757575" stroke-width="10" stroke-dasharray="1,95"/><line x1="30" y1="341" x2="990" y2="341" stroke="#757575" stroke-width="1"/><text x="78" y="479" font-size="6.5" fill="#231f20" text-anchor="middle" dominant-baseline="text-before-edge">Flexible IO Tester</text><rect x="39.6" y="410" width="38" height="66" fill="#f44336" stroke="#949494" stroke-width="1"/><rect x="77.6" y="357" width="38" height="119" fill="#673ab7" stroke="#949494" stroke-width="1"/><text x="174" y="479" font-size="6.5" fill="#231f20" text-anchor="middle" dominant-baseline="text-before-edge">Flexible IO Tester</text><rect x="135.6" y="409" width="38" height="67" fill="#f44336" stroke="#949494" stroke-width="1"/><rect x="173.6" y="357" width="38" height="119" fill="#673ab7" stroke="#949494" stroke-width="1"/><text x="270" y="479" font-size="6.5" fill="#231f20" text-anchor="middle" dominant-baseline="text-before-edge">Flexible IO Tester</text><rect x="231.6" y="467" width="38" height="9" fill="#f44336" stroke="#949494" stroke-width="1"/><rect x="269.6" y="357" width="38" height="119" fill="#673ab7" stroke="#949494" stroke-width="1"/><text x="366" y="479" font-size="6.5" fill="#231f20" text-anchor="middle" dominant-baseline="text-before-edge">Flexible IO Tester</text><rect x="327.6" y="464" width="38" height="12" fill="#f44336" stroke="#949494" stroke-width="1"/><rect x="365.6" y="357" width="38" height="119" fill="#673ab7" stroke="#949494" stroke-width="1"/><text x="462" y="479" font-size="6.5" fill="#231f20" text-anchor="middle" dominant-baseline="text-before-edge">Flexible IO Tester</text><rect x="423.6" y="466" width="38" height="10" fill="#f44336" stroke="#949494" stroke-width="1"/><rect x="461.6" y="357" width="38" height="119" fill="#673ab7" stroke="#949494" stroke-width="1"/><text x="558" y="479" font-size="6.5" fill="#231f20" text-anchor="middle" dominant-baseline="text-before-edge">Flexible IO Tester</text><rect x="519.6" y="466" width="38" height="10" fill="#f44336" stroke="#949494" stroke-width="1"/><rect x="557.6" y="357" width="38" height="119" fill="#673ab7" stroke="#949494" stroke-width="1"/><text x="654" y="479" font-size="6.5" fill="#231f20" text-anchor="middle" dominant-baseline="text-before-edge">Flexible IO Tester</text><rect x="615.6" y="467" width="38" height="9" fill="#f44336" stroke="#949494" stroke-width="1"/><rect x="653.6" y="357" width="38" height="119" fill="#673ab7" stroke="#949494" stroke-width="1"/><text x="750" y="479" font-size="6.5" fill="#231f20" text-anchor="middle" dominant-baseline="text-before-edge">Flexible IO Tester</text><rect x="711.6" y="466" width="38" height="10" fill="#f44336" stroke="#949494" stroke-width="1"/><rect x="749.6" y="357" width="38" height="119" fill="#673ab7" stroke="#949494" stroke-width="1"/><text x="846" y="479" font-size="6.5" fill="#231f20" text-anchor="middle" dominant-baseline="text-before-edge">Flexible IO Tester</text><rect x="807.6" y="467" width="38" height="9" fill="#f44336" stroke="#949494" stroke-width="1"/><rect x="845.6" y="357" width="38" height="119" fill="#673ab7" stroke="#949494" stroke-width="1"/><text x="942" y="479" font-size="6.5" fill="#231f20" text-anchor="middle" dominant-baseline="text-before-edge">Flexible IO Tester</text><rect x="903.6" y="464" width="38" height="12" fill="#f44336" stroke="#949494" stroke-width="1"/><rect x="941.6" y="357" width="38" height="119" fill="#673ab7" stroke="#949494" stroke-width="1"/><line x1="126" y1="476" x2="950" y2="476" stroke="#757575" stroke-width="10" stroke-dasharray="1,95"/><line x1="30" y1="476" x2="990" y2="476" stroke="#757575" stroke-width="1"/><text x="78" y="614" font-size="6.5" fill="#231f20" text-anchor="middle" dominant-baseline="text-before-edge">Flexible IO Tester</text><rect x="39.6" y="601" width="38" height="10" fill="#f44336" stroke="#949494" stroke-width="1"/><rect x="77.6" y="492" width="38" height="119" fill="#673ab7" stroke="#949494" stroke-width="1"/><text x="174" y="614" font-size="6.5" fill="#231f20" text-anchor="middle" dominant-baseline="text-before-edge">Flexible IO Tester</text><rect x="135.6" y="601" width="38" height="10" fill="#f44336" stroke="#949494" stroke-width="1"/><rect x="173.6" y="492" width="38" height="119" fill="#673ab7" stroke="#949494" stroke-width="1"/><text x="270" y="614" font-size="6.5" fill="#231f20" text-anchor="middle" dominant-baseline="text-before-edge">Flexible IO Tester</text><rect x="231.6" y="601" width="38" height="10" fill="#f44336" stroke="#949494" stroke-width="1"/><rect x="269.6" y="492" width="38" height="119" fill="#673ab7" stroke="#949494" stroke-width="1"/><text x="366" y="614" font-size="6.5" fill="#231f20" text-anchor="middle" dominant-baseline="text-before-edge">Flexible IO Tester</text><rect x="327.6" y="601" width="38" height="10" fill="#f44336" stroke="#949494" stroke-width="1"/><rect x="365.6" y="492" width="38" height="119" fill="#673ab7" stroke="#949494" stroke-width="1"/><text x="462" y="614" font-size="6.5" fill="#231f20" text-anchor="middle" dominant-baseline="text-before-edge">Flexible IO Tester</text><rect x="423.6" y="529" width="38" height="82" fill="#f44336" stroke="#949494" stroke-width="1"/><rect x="461.6" y="492" width="38" height="119" fill="#673ab7" stroke="#949494" stroke-width="1"/><text x="558" y="614" font-size="6.5" fill="#231f20" text-anchor="middle" dominant-baseline="text-before-edge">Flexible IO Tester</text><rect x="519.6" y="527" width="38" height="84" fill="#f44336" stroke="#949494" stroke-width="1"/><rect x="557.6" y="492" width="38" height="119" fill="#673ab7" stroke="#949494" stroke-width="1"/><text x="654" y="614" font-size="6.5" fill="#231f20" text-anchor="middle" dominant-baseline="text-before-edge">Flexible IO Tester</text><rect x="615.6" y="531" width="38" height="80" fill="#f44336" stroke="#949494" stroke-width="1"/><rect x="653.6" y="492" width="38" height="119" fill="#673ab7" stroke="#949494" stroke-width="1"/><text x="750" y="614" font-size="6.5" fill="#231f20" text-anchor="middle" dominant-baseline="text-before-edge">Flexible IO Tester</text><rect x="711.6" y="530" width="38" height="81" fill="#f44336" stroke="#949494" stroke-width="1"/><rect x="749.6" y="492" width="38" height="119" fill="#673ab7" stroke="#949494" stroke-width="1"/><text x="846" y="614" font-size="6.5" fill="#231f20" text-anchor="middle" dominant-baseline="text-before-edge">Flexible IO Tester</text><rect x="807.6" y="531" width="38" height="80" fill="#f44336" stroke="#949494" stroke-width="1"/><rect x="845.6" y="492" width="38" height="119" fill="#673ab7" stroke="#949494" stroke-width="1"/><text x="942" y="614" font-size="6.5" fill="#231f20" text-anchor="middle" dominant-baseline="text-before-edge">Flexible IO Tester</text><rect x="903.6" y="530" width="38" height="81" fill="#f44336" stroke="#949494" stroke-width="1"/><rect x="941.6" y="492" width="38" height="119" fill="#673ab7" stroke="#949494" stroke-width="1"/><line x1="126" y1="611" x2="950" y2="611" stroke="#757575" stroke-width="10" stroke-dasharray="1,95"/><line x1="30" y1="611" x2="990" y2="611" stroke="#757575" stroke-width="1"/><text x="78" y="749" font-size="6.5" fill="#231f20" text-anchor="middle" dominant-baseline="text-before-edge">Flexible IO Tester</text><rect x="39.6" y="666" width="38" height="80" fill="#f44336" stroke="#949494" stroke-width="1"/><rect x="77.6" y="627" width="38" height="119" fill="#673ab7" stroke="#949494" stroke-width="1"/><text x="174" y="749" font-size="6.5" fill="#231f20" text-anchor="middle" dominant-baseline="text-before-edge">Flexible IO Tester</text><rect x="135.6" y="664" width="38" height="82" fill="#f44336" stroke="#949494" stroke-width="1"/><rect x="173.6" y="627" width="38" height="119" fill="#673ab7" stroke="#949494" stroke-width="1"/><text x="270" y="749" font-size="6.5" fill="#231f20" text-anchor="middle" dominant-baseline="text-before-edge">Flexible IO Tester</text><rect x="231.6" y="667" width="38" height="79" fill="#f44336" stroke="#949494" stroke-width="1"/><rect x="269.6" y="627" width="38" height="119" fill="#673ab7" stroke="#949494" stroke-width="1"/><text x="366" y="749" font-size="6.5" fill="#231f20" text-anchor="middle" dominant-baseline="text-before-edge">Flexible IO Tester</text><rect x="327.6" y="667" width="38" height="79" fill="#f44336" stroke="#949494" stroke-width="1"/><rect x="365.6" y="627" width="38" height="119" fill="#673ab7" stroke="#949494" stroke-width="1"/><text x="462" y="749" font-size="6.5" fill="#231f20" text-anchor="middle" dominant-baseline="text-before-edge">Flexible IO Tester</text><rect x="423.6" y="669" width="38" height="77" fill="#f44336" stroke="#949494" stroke-width="1"/><rect x="461.6" y="627" width="38" height="119" fill="#673ab7" stroke="#949494" stroke-width="1"/><text x="558" y="749" font-size="6.5" fill="#231f20" text-anchor="middle" dominant-baseline="text-before-edge">Flexible IO Tester</text><rect x="519.6" y="668" width="38" height="78" fill="#f44336" stroke="#949494" stroke-width="1"/><rect x="557.6" y="627" width="38" height="119" fill="#673ab7" stroke="#949494" stroke-width="1"/><text x="495" y="19" font-size="17" fill="#231f20" text-anchor="middle" xlink:show="new">fio2</text><a xlink:href="http://www.phoronix-test-suite.com/" xlink:show="new"><text x="990" y="83.333333333333" font-size="7" fill="#949494" text-anchor="end" xlink:show="new">Phoronix Test Suite 6.8.0</text></a></svg>
