<?xml version="1.0"?>
<!DOCTYPE svg PUBLIC "-//W3C//DTD SVG 1.1//EN" "http://www.w3.org/Graphics/SVG/1.1/DTD/svg11.dtd">
<!--Phoronix Test Suite v6.8.0 [ http://www.phoronix-test-suite.com/ ]-->
<svg xmlns="http://www.w3.org/2000/svg" xmlns:xlink="http://www.w3.org/1999/xlink" version="1.1" font-family="sans-serif, droid-sans, helvetica, verdana, tahoma" viewbox="0 0 600 230" width="600" height="230" preserveAspectRatio="xMinYMin meet"><rect x="0" y="0" width="600" height="230" fill="#FEFEFE" stroke="#757575" stroke-width="2"/><g stroke="#757575" stroke-width="1"><line x1="70.5" y1="64" x2="70.5" y2="157"/><line x1="70" y1="156.5" x2="586" y2="156.5"/></g><a xlink:href="http://www.phoronix-test-suite.com/" xlink:show="new"><text x="585" y="59" font-size="7" fill="#065695" text-anchor="end" xlink:show="new">PHORONIX-TEST-SUITE.COM</text></a><polygon points="79.5,56 70.5,60.5 70.5,51.5" fill="#065695" stroke="#949494" stroke-width="1"/><text x="82" y="59" font-size="7" fill="#065695" text-anchor="start">MB/s, More Is Better</text><rect x="0" y="0" width="600" height="48" fill="#231f20"/><a xlink:href="http://openbenchmarking.org/test/pts/aio-stress-1.1.1" xlink:show="new"><text x="6" y="19" font-size="17" fill="#FEFEFE" text-anchor="start" xlink:show="new">AIO-Stress v0.21</text></a><text x="6" y="36" font-size="11" fill="#FEFEFE" text-anchor="start">Test: Random Write</text><path d="m74 22v9m-5-16v16m-5-28v28m-23-2h12.5c2.485281 0 4.5-2.014719 4.5-4.5s-2.014719-4.5-4.5-4.5h-8c-2.485281 0-4.5-2.014719-4.5-4.5s2.014719-4.5 4.5-4.5h12.5m-21 5h-11m11 13h-2c-4.970563 0-9-4.029437-9-9v-20m-24 40v-20c0-4.970563 4.0294373-9 9-9 4.970563 0 9 4.029437 9 9s-4.029437 9-9 9h-9" stroke="#ffffff" stroke-width="4" fill="none" transform="translate(508,4)"/><line x1="70.5" y1="110" x2="70.5" y2="156" stroke="#757575" stroke-width="11" stroke-dasharray="1,45"/><g font-size="10" fill="#231f20"><text x="65" y="85" text-anchor="end">nilfs</text><text x="65" y="131" text-anchor="end">ext4</text></g><g font-size="10" fill="#065695" text-anchor="middle"><text x="158.5" y="171">700</text><text x="244.5" y="171">1400</text><text x="330.5" y="171">2100</text><text x="416.5" y="171">2800</text><text x="502.5" y="171">3500</text></g><g stroke="#BABABA" stroke-width="1"><line x1="158.5" y1="64" x2="158.5" y2="151" stroke-dasharray="5,5"/><line x1="158.5" y1="152" x2="158.5" y2="161"/><line x1="244.5" y1="64" x2="244.5" y2="151" stroke-dasharray="5,5"/><line x1="244.5" y1="152" x2="244.5" y2="161"/><line x1="330.5" y1="64" x2="330.5" y2="151" stroke-dasharray="5,5"/><line x1="330.5" y1="152" x2="330.5" y2="161"/><line x1="416.5" y1="64" x2="416.5" y2="151" stroke-dasharray="5,5"/><line x1="416.5" y1="152" x2="416.5" y2="161"/><line x1="502.5" y1="64" x2="502.5" y2="151" stroke-dasharray="5,5"/><line x1="502.5" y1="152" x2="502.5" y2="161"/></g><g stroke="#949494" stroke-width="1"><rect x="70.5" y="70.5" height="34" width="12" fill="#2196f3" xlink:title="nilfs: 101.40"/><rect x="70.5" y="116.5" height="34" width="410" fill="#2196f3" xlink:title="ext4: 3343.21"/></g><g font-size="8" fill="#065695" text-anchor="end"><text y="101" x="65">SE +/- 0.68</text><text y="147" x="65">SE +/- 68.93</text></g><g font-size="10" fill="#FFFFFF"><text x="88" y="93" fill="#065695" text-anchor="start">101.40</text><text x="475" y="139" text-anchor="end">3343.21</text></g><line x1="472.5" y1="116" x2="472.5" y2="124" stroke="#757575" stroke-width="1"/><line x1="488.5" y1="116" x2="488.5" y2="124" stroke="#757575" stroke-width="1"/><line x1="472.5" y1="116.5" x2="488.5" y2="116.5" stroke="#757575" stroke-width="1"/><rect x="0" y="178" width="600" height="52" fill="#231f20"/><a xlink:href="http://www.phoronix-test-suite.com/" xlink:show="new"><text x="585" y="190" font-size="9" fill="#FEFEFE" text-anchor="end" xlink:show="new">Phoronix Test Suite 6.8.0</text></a><text x="5" y="204" font-size="8" fill="#FEFEFE" text-anchor="start" xlink:title="-pthread -laio" width="595">1. (CC) gcc options: -pthread -laio</text></svg>
