<?xml version="1.0"?>
<!DOCTYPE svg PUBLIC "-//W3C//DTD SVG 1.1//EN" "http://www.w3.org/Graphics/SVG/1.1/DTD/svg11.dtd">
<!--Phoronix Test Suite v6.8.0 [ http://www.phoronix-test-suite.com/ ]-->
<svg xmlns="http://www.w3.org/2000/svg" xmlns:xlink="http://www.w3.org/1999/xlink" version="1.1" font-family="sans-serif, droid-sans, helvetica, verdana, tahoma" viewbox="0 0 330 153" width="330" height="153" preserveAspectRatio="xMinYMin meet"><rect x="0" y="0" width="330" height="153" fill="#FEFEFE" stroke="#757575" stroke-width="2"/><rect x="1" y="1" width="329" height="152" fill="#FEFEFE" stroke="#757575" stroke-width="1"/><path d="m74 22v9m-5-16v16m-5-28v28m-23-2h12.5c2.485281 0 4.5-2.014719 4.5-4.5s-2.014719-4.5-4.5-4.5h-8c-2.485281 0-4.5-2.014719-4.5-4.5s2.014719-4.5 4.5-4.5h12.5m-21 5h-11m11 13h-2c-4.970563 0-9-4.029437-9-9v-20m-24 40v-20c0-4.970563 4.0294373-9 9-9 4.970563 0 9 4.029437 9 9s-4.029437 9-9 9h-9" stroke="#000000" stroke-width="4" fill="none" transform="translate(74,28)"/><line x1="228" y1="81" x2="330" y2="81" stroke="#BABABA" stroke-width="112" stroke-dasharray="51,51"/><line x1="165" y1="73" x2="165" y2="137" stroke="#949494" stroke-width="330" stroke-dasharray="16,16"/><line x1="228" y1="81" x2="330" y2="81" stroke="#757575" stroke-width="112" stroke-dasharray="1,50"/><rect x="1" y="1" width="328" height="25" fill="#231f20"/><text x="5" y="19" font-size="17" fill="#FEFEFE" text-anchor="start">aio</text><line x1="1" y1="25" x2="329" y2="25" stroke="#757575" stroke-width="1"/><g font-size="10" font-weight="bold" text-anchor="end" fill="#065695"><a xlink:href="http://openbenchmarking.org/test/pts/aio-stress-1.1.1" xlink:show="new"><text x="226" y="85" fill="#065695">aio-stress: Test: Random Write</text></a><text x="226" y="101" fill="#065695">Difference</text><text x="226" y="117" fill="#065695">Standard Error</text><text x="226" y="133" fill="#065695">Standard Deviation</text></g><g font-size="10" fill="#065695" font-weight="bold" text-anchor="middle" dominant-baseline="text-before-edge"><text x="253.5" y="49">nilfs</text><text x="304.5" y="49">ext4</text></g><g/><g text-anchor="middle" font-size="10"><text x="253.5" y="86" fill="#C80000" xlink:title="STD Dev: 1.16%;  STD Error: 0.68">101.40</text><text x="253.5" y="102" fill="#065695">1.00x</text><text x="253.5" y="118" fill="#065695">0.68</text><text x="253.5" y="134" fill="#065695">1.16%</text><text x="304.5" y="86" fill="#005a00" xlink:title="STD Dev: 5.05%;  STD Error: 68.93">3343.21</text><text x="304.5" y="102" fill="#065695">32.97x</text><text x="304.5" y="118" fill="#065695">68.93</text><text x="304.5" y="134" fill="#065695">5.05%</text></g><line x1="165" y1="73" x2="165" y2="137" stroke="#949494" stroke-width="330" stroke-dasharray="1,15"/><rect x="0" y="137" width="330" height="16" fill="#231f20"/><a xlink:href="http://www.phoronix-test-suite.com/" xlink:show="new"><text x="328" y="150" font-size="10" fill="#FFFFFF" text-anchor="end" xlink:show="new">PHORONIX-TEST-SUITE.COM</text></a></svg>
