<?xml version="1.0"?>
<!DOCTYPE svg PUBLIC "-//W3C//DTD SVG 1.1//EN" "http://www.w3.org/Graphics/SVG/1.1/DTD/svg11.dtd">
<!--Phoronix Test Suite v6.8.0 [ http://www.phoronix-test-suite.com/ ]-->
<svg xmlns="http://www.w3.org/2000/svg" xmlns:xlink="http://www.w3.org/1999/xlink" version="1.1" font-family="sans-serif, droid-sans, helvetica, verdana, tahoma" viewbox="0 0 244 168" width="244" height="168" preserveAspectRatio="xMinYMin meet"><rect x="0" y="0" width="244" height="168" fill="#FEFEFE" stroke="#757575" stroke-width="2"/><rect x="1" y="1" width="243" height="167" fill="#FEFEFE" stroke="#757575" stroke-width="1"/><path d="m74 22v9m-5-16v16m-5-28v28m-23-2h12.5c2.485281 0 4.5-2.014719 4.5-4.5s-2.014719-4.5-4.5-4.5h-8c-2.485281 0-4.5-2.014719-4.5-4.5s2.014719-4.5 4.5-4.5h12.5m-21 5h-11m11 13h-2c-4.970563 0-9-4.029437-9-9v-20m-24 40v-20c0-4.970563 4.0294373-9 9-9 4.970563 0 9 4.029437 9 9s-4.029437 9-9 9h-9" stroke="#000000" stroke-width="4" fill="none" transform="translate(31,43)"/><line x1="142" y1="96" x2="244" y2="96" stroke="#BABABA" stroke-width="112" stroke-dasharray="51,51"/><line x1="122" y1="88" x2="122" y2="152" stroke="#949494" stroke-width="244" stroke-dasharray="16,16"/><line x1="142" y1="96" x2="244" y2="96" stroke="#757575" stroke-width="112" stroke-dasharray="1,50"/><rect x="1" y="1" width="242" height="40" fill="#231f20"/><text x="5" y="19" font-size="17" fill="#FEFEFE" text-anchor="start">IOzone</text><text x="5" y="33" font-size="11" fill="#FEFEFE" text-anchor="start">Record Size: 64Kb - File Size: 4GB - Disk Test: Read Performance</text><line x1="1" y1="40" x2="243" y2="40" stroke="#757575" stroke-width="1"/><g font-size="10" font-weight="bold" text-anchor="end" fill="#065695"><text x="140" y="100" fill="#065695">Results</text><text x="140" y="116" fill="#065695">Difference</text><text x="140" y="132" fill="#065695">Standard Error</text><text x="140" y="148" fill="#065695">Standard Deviation</text></g><g font-size="10" fill="#065695" font-weight="bold" text-anchor="middle" dominant-baseline="text-before-edge"><text x="167.5" y="64">nilfs</text><text x="218.5" y="64">ext4</text></g><g/><g text-anchor="middle" font-size="10"><text x="167.5" y="101" fill="#005a00" xlink:title="STD Dev: 4.07%;  STD Error: 161.31">9702.98</text><text x="167.5" y="117" fill="#065695">1.12x</text><text x="167.5" y="133" fill="#065695">161.31</text><text x="167.5" y="149" fill="#065695">4.07%</text><text x="218.5" y="101" fill="#C80000" xlink:title="STD Dev: 2.43%;  STD Error: 121.56">8651.57</text><text x="218.5" y="117" fill="#065695">1.00x</text><text x="218.5" y="133" fill="#065695">121.56</text><text x="218.5" y="149" fill="#065695">2.43%</text></g><line x1="122" y1="88" x2="122" y2="152" stroke="#949494" stroke-width="244" stroke-dasharray="1,15"/><rect x="0" y="152" width="244" height="16" fill="#231f20"/><a xlink:href="http://www.phoronix-test-suite.com/" xlink:show="new"><text x="242" y="165" font-size="10" fill="#FFFFFF" text-anchor="end" xlink:show="new">PHORONIX-TEST-SUITE.COM</text></a></svg>
