<?xml version="1.0"?>
<!DOCTYPE svg PUBLIC "-//W3C//DTD SVG 1.1//EN" "http://www.w3.org/Graphics/SVG/1.1/DTD/svg11.dtd">
<!--Phoronix Test Suite v6.8.0 [ http://www.phoronix-test-suite.com/ ]-->
<svg xmlns="http://www.w3.org/2000/svg" xmlns:xlink="http://www.w3.org/1999/xlink" version="1.1" font-family="sans-serif, droid-sans, helvetica, verdana, tahoma" viewbox="0 0 640 185" width="640" height="185" preserveAspectRatio="xMinYMin meet"><rect x="0" y="0" width="640" height="185" fill="#FEFEFE" stroke="#757575" stroke-width="2"/><rect x="1" y="1" width="639" height="184" fill="#FEFEFE" stroke="#757575" stroke-width="1"/><path d="m74 22v9m-5-16v16m-5-28v28m-23-2h12.5c2.485281 0 4.5-2.014719 4.5-4.5s-2.014719-4.5-4.5-4.5h-8c-2.485281 0-4.5-2.014719-4.5-4.5s2.014719-4.5 4.5-4.5h12.5m-21 5h-11m11 13h-2c-4.970563 0-9-4.029437-9-9v-20m-24 40v-20c0-4.970563 4.0294373-9 9-9 4.970563 0 9 4.029437 9 9s-4.029437 9-9 9h-9" stroke="#000000" stroke-width="4" fill="none" transform="translate(229,28)"/><line x1="538" y1="97" x2="640" y2="97" stroke="#BABABA" stroke-width="144" stroke-dasharray="51,51"/><line x1="320" y1="73" x2="320" y2="169" stroke="#949494" stroke-width="640" stroke-dasharray="16,16"/><line x1="538" y1="97" x2="640" y2="97" stroke="#757575" stroke-width="144" stroke-dasharray="1,50"/><rect x="1" y="1" width="638" height="25" fill="#231f20"/><text x="5" y="19" font-size="17" fill="#FEFEFE" text-anchor="start">ioz</text><line x1="1" y1="25" x2="639" y2="25" stroke="#757575" stroke-width="1"/><g font-size="10" font-weight="bold" text-anchor="end" fill="#065695"><a xlink:href="http://openbenchmarking.org/test/pts/iozone-1.8.0" xlink:show="new"><text x="536" y="85" fill="#065695">iozone: Record Size: 1MB - File Size: 4GB - Disk Test: Read Performance</text></a><a xlink:href="http://openbenchmarking.org/test/pts/iozone-1.8.0" xlink:show="new"><text x="536" y="101" fill="#065695">iozone: Record Size: 4Kb - File Size: 4GB - Disk Test: Read Performance</text></a><a xlink:href="http://openbenchmarking.org/test/pts/iozone-1.8.0" xlink:show="new"><text x="536" y="117" fill="#065695">iozone: Record Size: 1MB - File Size: 4GB - Disk Test: Write Performance</text></a><a xlink:href="http://openbenchmarking.org/test/pts/iozone-1.8.0" xlink:show="new"><text x="536" y="133" fill="#065695">iozone: Record Size: 4Kb - File Size: 4GB - Disk Test: Write Performance</text></a><a xlink:href="http://openbenchmarking.org/test/pts/iozone-1.8.0" xlink:show="new"><text x="536" y="149" fill="#065695">iozone: Record Size: 64Kb - File Size: 4GB - Disk Test: Read Performance</text></a><a xlink:href="http://openbenchmarking.org/test/pts/iozone-1.8.0" xlink:show="new"><text x="536" y="165" fill="#065695">iozone: Record Size: 64Kb - File Size: 4GB - Disk Test: Write Performance</text></a></g><g font-size="10" fill="#065695" font-weight="bold" text-anchor="middle" dominant-baseline="text-before-edge"><text x="563.5" y="49">nilfs</text><text x="614.5" y="49">ext4</text></g><g/><g text-anchor="middle" font-size="10"><text x="563.5" y="86" fill="#C80000" xlink:title="STD Dev: 1.40%;  STD Error: 68.32">8482.20</text><text x="563.5" y="102" fill="#C80000" xlink:title="STD Dev: 2.75%;  STD Error: 125.45">7912.36</text><text x="563.5" y="118" fill="#C80000" xlink:title="STD Dev: 0.60%;  STD Error: 0.37">105.51</text><text x="563.5" y="134" fill="#C80000" xlink:title="STD Dev: 0.42%;  STD Error: 0.25">104.15</text><text x="563.5" y="150" fill="#005a00" xlink:title="STD Dev: 4.07%;  STD Error: 161.31">9702.98</text><text x="563.5" y="166" fill="#C80000" xlink:title="STD Dev: 0.20%;  STD Error: 0.12">101.27</text><text x="614.5" y="86" fill="#005a00" xlink:title="STD Dev: 3.16%;  STD Error: 120.87">8546.74</text><text x="614.5" y="102" fill="#005a00" xlink:title="STD Dev: 2.31%;  STD Error: 107.11">8028.49</text><text x="614.5" y="118" fill="#005a00" xlink:title="STD Dev: 0.40%;  STD Error: 0.30">131.52</text><text x="614.5" y="134" fill="#005a00" xlink:title="STD Dev: 0.23%;  STD Error: 0.17">130.44</text><text x="614.5" y="150" fill="#C80000" xlink:title="STD Dev: 2.43%;  STD Error: 121.56">8651.57</text><text x="614.5" y="166" fill="#005a00" xlink:title="STD Dev: 0.15%;  STD Error: 0.11">128.90</text></g><line x1="320" y1="73" x2="320" y2="169" stroke="#949494" stroke-width="640" stroke-dasharray="1,15"/><rect x="0" y="169" width="640" height="16" fill="#231f20"/><a xlink:href="http://www.phoronix-test-suite.com/" xlink:show="new"><text x="638" y="182" font-size="10" fill="#FFFFFF" text-anchor="end" xlink:show="new">PHORONIX-TEST-SUITE.COM</text></a></svg>
