<?xml version="1.0"?>
<!DOCTYPE svg PUBLIC "-//W3C//DTD SVG 1.1//EN" "http://www.w3.org/Graphics/SVG/1.1/DTD/svg11.dtd">
<!--Phoronix Test Suite v6.8.0 [ http://www.phoronix-test-suite.com/ ]-->
<svg xmlns="http://www.w3.org/2000/svg" xmlns:xlink="http://www.w3.org/1999/xlink" version="1.1" font-family="sans-serif, droid-sans, helvetica, verdana, tahoma" viewbox="0 0 1000 310" width="1000" height="310" preserveAspectRatio="xMinYMin meet"><rect x="0" y="0" width="1000" height="310" fill="#FEFEFE" stroke="#757575" stroke-width="2"/><g stroke="#757575" stroke-width="1"/><g font-size="9" text-anchor="start"/><rect x="30" y="86.333333333333" width="960" height="120" fill="#BABABA" stroke="#757575" stroke-width="1"/><a xlink:href="http://www.phoronix-test-suite.com/" xlink:show="new"><text x="988" y="98.333333333333" font-size="10" fill="#065695" text-anchor="end" xlink:show="new">PHORONIX-TEST-SUITE.COM</text></a><g stroke="#757575" stroke-width="1" stroke-dasharray="5,5"><line x1="30" y1="187.5" x2="990" y2="187.5"/><line x1="30" y1="167.5" x2="990" y2="167.5"/><line x1="30" y1="147.5" x2="990" y2="147.5"/><line x1="30" y1="127.5" x2="990" y2="127.5"/><line x1="30" y1="107.5" x2="990" y2="107.5"/></g><g stroke="#757575" stroke-width="1"><line x1="26" y1="187.5" x2="34" y2="187.5"/><line x1="26" y1="167.5" x2="34" y2="167.5"/><line x1="26" y1="147.5" x2="34" y2="147.5"/><line x1="26" y1="127.5" x2="34" y2="127.5"/><line x1="26" y1="107.5" x2="34" y2="107.5"/></g><g stroke="#949494" stroke-width="1" stroke-dasharray="5,5"><line x1="41" y1="187.5" x2="990" y2="187.5"/><line x1="41" y1="167.5" x2="990" y2="167.5"/><line x1="41" y1="147.5" x2="990" y2="147.5"/><line x1="41" y1="127.5" x2="990" y2="127.5"/><line x1="41" y1="107.5" x2="990" y2="107.5"/></g><g font-size="10" fill="#065695" text-anchor="end"/><text x="78" y="209" font-size="6.5" fill="#231f20" text-anchor="middle" dominant-baseline="text-before-edge">IOzone</text><rect x="39.6" y="88" width="38" height="118" fill="#f44336" stroke="#949494" stroke-width="1"/><rect x="77.6" y="87" width="38" height="119" fill="#673ab7" stroke="#949494" stroke-width="1"/><text x="174" y="209" font-size="6.5" fill="#231f20" text-anchor="middle" dominant-baseline="text-before-edge">IOzone</text><rect x="135.6" y="89" width="38" height="117" fill="#f44336" stroke="#949494" stroke-width="1"/><rect x="173.6" y="87" width="38" height="119" fill="#673ab7" stroke="#949494" stroke-width="1"/><text x="270" y="209" font-size="6.5" fill="#231f20" text-anchor="middle" dominant-baseline="text-before-edge">IOzone</text><rect x="231.6" y="111" width="38" height="95" fill="#f44336" stroke="#949494" stroke-width="1"/><rect x="269.6" y="87" width="38" height="119" fill="#673ab7" stroke="#949494" stroke-width="1"/><text x="366" y="209" font-size="6.5" fill="#231f20" text-anchor="middle" dominant-baseline="text-before-edge">IOzone</text><rect x="327.6" y="111" width="38" height="95" fill="#f44336" stroke="#949494" stroke-width="1"/><rect x="365.6" y="87" width="38" height="119" fill="#673ab7" stroke="#949494" stroke-width="1"/><text x="462" y="209" font-size="6.5" fill="#231f20" text-anchor="middle" dominant-baseline="text-before-edge">IOzone</text><rect x="423.6" y="87" width="38" height="119" fill="#f44336" stroke="#949494" stroke-width="1"/><rect x="461.6" y="100" width="38" height="106" fill="#673ab7" stroke="#949494" stroke-width="1"/><text x="558" y="209" font-size="6.5" fill="#231f20" text-anchor="middle" dominant-baseline="text-before-edge">IOzone</text><rect x="519.6" y="113" width="38" height="93" fill="#f44336" stroke="#949494" stroke-width="1"/><rect x="557.6" y="87" width="38" height="119" fill="#673ab7" stroke="#949494" stroke-width="1"/><text x="495" y="19" font-size="17" fill="#231f20" text-anchor="middle" xlink:show="new">ioz</text><a xlink:href="http://www.phoronix-test-suite.com/" xlink:show="new"><text x="990" y="83.333333333333" font-size="7" fill="#949494" text-anchor="end" xlink:show="new">Phoronix Test Suite 6.8.0</text></a></svg>
