<?xml version="1.0"?>
<!DOCTYPE svg PUBLIC "-//W3C//DTD SVG 1.1//EN" "http://www.w3.org/Graphics/SVG/1.1/DTD/svg11.dtd">
<!--Phoronix Test Suite v6.8.0 [ http://www.phoronix-test-suite.com/ ]-->
<svg xmlns="http://www.w3.org/2000/svg" xmlns:xlink="http://www.w3.org/1999/xlink" version="1.1" font-family="sans-serif, droid-sans, helvetica, verdana, tahoma" viewbox="0 0 448 121" width="448" height="121" preserveAspectRatio="xMinYMin meet"><rect x="0" y="0" width="448" height="121" fill="#FEFEFE" stroke="#757575" stroke-width="2"/><rect x="1" y="1" width="447" height="120" fill="#FEFEFE" stroke="#757575" stroke-width="1"/><path d="m74 22v9m-5-16v16m-5-28v28m-23-2h12.5c2.485281 0 4.5-2.014719 4.5-4.5s-2.014719-4.5-4.5-4.5h-8c-2.485281 0-4.5-2.014719-4.5-4.5s2.014719-4.5 4.5-4.5h12.5m-21 5h-11m11 13h-2c-4.970563 0-9-4.029437-9-9v-20m-24 40v-20c0-4.970563 4.0294373-9 9-9 4.970563 0 9 4.029437 9 9s-4.029437 9-9 9h-9" stroke="#000000" stroke-width="4" fill="none" transform="translate(139,28)"/><line x1="358" y1="65" x2="448" y2="65" stroke="#BABABA" stroke-width="80" stroke-dasharray="45,45"/><line x1="224" y1="73" x2="224" y2="105" stroke="#949494" stroke-width="448" stroke-dasharray="16,16"/><line x1="358" y1="65" x2="448" y2="65" stroke="#757575" stroke-width="80" stroke-dasharray="1,44"/><rect x="1" y="1" width="446" height="25" fill="#231f20"/><text x="5" y="19" font-size="17" fill="#FEFEFE" text-anchor="start">fsm</text><line x1="1" y1="25" x2="447" y2="25" stroke="#757575" stroke-width="1"/><g font-size="10" font-weight="bold" text-anchor="end" fill="#065695"><a xlink:href="http://openbenchmarking.org/test/pts/fs-mark-1.0.1" xlink:show="new"><text x="356" y="85" fill="#065695">fs-mark: Test: 4000 Files, 32 Sub Dirs, 1MB Size</text></a><a xlink:href="http://openbenchmarking.org/test/pts/fs-mark-1.0.1" xlink:show="new"><text x="356" y="101" fill="#065695">fs-mark: Test: 5000 Files, 1MB Size, 4 Threads</text></a></g><g font-size="10" fill="#065695" font-weight="bold" text-anchor="middle" dominant-baseline="text-before-edge"><text x="380.5" y="49">nilfs</text><text x="425.5" y="49">ext4</text></g><g/><g text-anchor="middle" font-size="10"><text x="380.5" y="86" fill="#005a00" xlink:title="STD Dev: 0.40%;  STD Error: 0.09">38.27</text><text x="380.5" y="102" fill="#C80000" xlink:title="STD Dev: 0.83%;  STD Error: 0.22">45.73</text><text x="425.5" y="86" fill="#C80000" xlink:title="STD Dev: 0.44%;  STD Error: 0.06">22.80</text><text x="425.5" y="102" fill="#005a00">46.40</text></g><line x1="224" y1="73" x2="224" y2="105" stroke="#949494" stroke-width="448" stroke-dasharray="1,15"/><rect x="0" y="105" width="448" height="16" fill="#231f20"/><a xlink:href="http://www.phoronix-test-suite.com/" xlink:show="new"><text x="446" y="118" font-size="10" fill="#FFFFFF" text-anchor="end" xlink:show="new">PHORONIX-TEST-SUITE.COM</text></a></svg>
